<svg xmlns="http://www.w3.org/2000/svg" xmlns:xlink="http://www.w3.org/1999/xlink" width="14" height="9" viewBox="0 0 14 9">
    <defs>
        <path id="prefix__a" d="M3.973 2l1.89 2 .002.006.098.157.037.191-.037.191-.098.157-.003.005-1.889 2L3.306 6l1.082-1.146H0v-1h4.388L3.306 2.707 3.973 2z"/>
    </defs>
    <g fill="none" fill-rule="evenodd">
        <g fill="#333" fill-rule="nonzero">
            <path d="M.2 0h10.6c.11 0 .2.09.2.2v.6c0 .11-.09.2-.2.2H.2C.09 1 0 .91 0 .8V.2C0 .09.09 0 .2 0zM5.2 4h5.6c.11 0 .2.09.2.2v.6c0 .11-.09.2-.2.2H5.2c-.11 0-.2-.09-.2-.2v-.6c0-.11.09-.2.2-.2zM.2 8h10.6c.11 0 .2.09.2.2v.6c0 .11-.09.2-.2.2H.2C.09 9 0 8.91 0 8.8v-.6c0-.11.09-.2.2-.2z" transform="translate(3)"/>
        </g>
        <use fill="#333" xlink:href="#prefix__a"/>
    </g>
</svg>
