<svg xmlns="http://www.w3.org/2000/svg" xmlns:xlink="http://www.w3.org/1999/xlink" width="14" height="9" viewBox="0 0 14 9">
    <defs>
        <path id="prefix__a" d="M3.973 2l1.89 2 .002.006.098.157.037.191-.037.191-.098.157-.003.005-1.889 2L3.306 6l1.082-1.146H0v-1h4.388L3.306 2.707 3.973 2z"/>
    </defs>
    <g fill="none" fill-rule="evenodd">
        <path fill="#333" fill-rule="nonzero" d="M3.2 0h10.6c.11 0 .2.09.2.2v.6c0 .11-.09.2-.2.2H3.2C3.09 1 3 .91 3 .8V.2c0-.11.09-.2.2-.2zM8.2 4h5.6c.11 0 .2.09.2.2v.6c0 .11-.09.2-.2.2H8.2c-.11 0-.2-.09-.2-.2v-.6c0-.11.09-.2.2-.2zM3.2 8h10.6c.11 0 .2.09.2.2v.6c0 .11-.09.2-.2.2H3.2c-.11 0-.2-.09-.2-.2v-.6c0-.11.09-.2.2-.2z"/>
        <use fill="#333" transform="rotate(-180 3 4.354)" xlink:href="#prefix__a"/>
    </g>
</svg>
