<svg xmlns="http://www.w3.org/2000/svg" width="32" height="32" viewBox="0 0 32 32">
    <g fill="none" fill-rule="evenodd" stroke="#FFF">
        <path d="M18 22.247c0 .552-.448 1-1 1H1c-.552 0-1-.448-1-1V10.655c0-4.814 4.03-8.717 9-8.717s9 3.903 9 8.717h0v11.592z" transform="translate(7 3)"/>
        <path fill="#FFF" d="M11 1.937C11 .867 10.105 0 9 0S7 .867 7 1.937c-.003.002.939-.16 1.908-.158 1.03.003 2.09.17 2.092.158z" transform="translate(7 3)"/>
        <path d="M9 26.152c1.638 0 2.97-1.271 3-2.85 0-.019.037-.055 0-.055H6c0 1.605 1.343 2.905 3 2.905z" transform="translate(7 3)"/>
    </g>
</svg>
